<svg width="618" height="378" xmlns="http://www.w3.org/2000/svg" xmlns:xlink="http://www.w3.org/1999/xlink" overflow="hidden"><defs><clipPath id="clip0"><path d="M627 147 1245 147 1245 525 627 525Z" fill-rule="evenodd" clip-rule="evenodd"/></clipPath></defs><g clip-path="url(#clip0)" transform="translate(-627 -147)"><path d="M828.326 148C840.848 148 851 158.128 851 170.622L851 313.276C851 314.838 850.841 316.363 850.539 317.835L850.459 318.093 849.628 327.394C845.073 347.746 826.519 393.502 767.405 395.914 700.443 398.646 670.073 335.581 681.277 292.317L684.657 278.871C689.268 266.143 696.582 256.654 700.884 252.928 725.425 224.465 753.65 224.45 766.172 224.45 799.894 231.459 786.001 260.224 782.444 262.176 774.664 274.818 756.235 266.934 742.297 276.748 731.21 284.628 726.753 296.988 725.026 307.012L724.537 310.772 724.791 310.881C724.791 322.732 732.181 348.308 764.804 350.503 778.081 348.507 797.71 345.452 805.252 316.869 806.385 268.719 805.518 218.174 805.652 170.622 805.652 158.128 815.803 148 828.326 148Z" fill="#98979C" fill-rule="evenodd"/><path d="M961.378 225.06C974.35 224.093 985 234.86 985 247.689L985 247.689C985 260.518 974.603 270.918 961.778 270.918 952.53 271.231 943.945 274.95 941.315 288.193L941.28 288.206 941.28 335.108C941.28 336.662 941.122 338.179 940.823 339.644L940.105 341.955 939.978 342.982C938.414 351.236 934.632 360.621 930.232 366.894 909.828 394.252 889.494 394.86 876.622 395.927 863.75 396.995 853 386.128 853 373.298L853 373.299C853 360.469 863.397 350.069 876.222 350.069 885.47 349.757 893.254 346.038 895.885 332.795L896.285 332.646 896.285 280.844C896.285 277.737 896.914 274.777 898.053 272.084L899.037 270.625 900.988 264.8C902.66 260.582 904.768 256.63 907.167 253.493 927.572 226.135 948.406 226.028 961.378 225.06Z" fill="#98979C" fill-rule="evenodd"/><path d="M1080.32 225.015C1086.19 225.125 1092.3 225.475 1097.71 226.87L1111.16 230.239C1123.9 234.833 1133.39 242.123 1137.11 246.409 1164.99 272.26 1163.8 298.193 1166 312.067 1158.99 345.671 1129.82 332.026 1127.86 328.481 1116.82 324.915 1122.11 297.245 1113.29 287.678 1103.4 276.946 1093.04 272.188 1083.02 270.467L1079.25 269.979 1079.14 270.233C1067.29 270.233 1041.71 277.597 1039.51 310.106 1041.26 321.682 1043.2 338.106 1062.82 347.065L1071.68 350.174C1072.23 350.213 1072.77 350.251 1073.32 350.29 1075.66 350.539 1078.01 350.788 1080.4 350.788 1092.81 350.788 1103.67 362.923 1102.87 373.227 1102.07 383.531 1095.21 395.866 1082.8 395.866L1076.76 395.666 1076.75 396 1073.43 395.666C1070.97 395.666 1068.31 395.268 1065.84 395.268 1062.74 395.268 1060.38 394.44 1057.7 393.305L1055.41 392.634 1053.94 392.225C1031.5 384.84 996.198 364.242 994.087 312.698 991.695 254.311 1039.3 224.24 1080.32 225.015Z" fill="#98979C" fill-rule="evenodd"/><path d="M1120 326C1120 338.668 1130.3 348.937 1143 348.937 1155.7 348.937 1166 338.668 1166 326L1166 366.063C1166 378.731 1155.7 389 1143 389 1130.3 389 1120 378.731 1120 366.063Z" fill="#FDCC00" fill-rule="evenodd"/><rect x="650" y="422" width="545" height="5" fill="#F2CA35"/><text fill="#969696" fill-opacity="0.74902" font-family="Arial,Arial_MSFontService,sans-serif" font-weight="400" font-size="37" transform="translate(649.6 493)">e<tspan x="59.5467" y="0">n</tspan><tspan x="121.505" y="0">g</tspan><tspan x="182.08" y="0">e</tspan><tspan x="242.656" y="0">n</tspan><tspan x="303.231" y="0">h</tspan><tspan x="363.806" y="0">a</tspan><tspan x="424.382" y="0">r</tspan><tspan x="477.21" y="0">i</tspan><tspan x="526.442" y="0">a</tspan></text></g></svg>