<svg id="Capa_1" enable-background="new 0 0 512 512" height="512" viewBox="0 0 512 512" width="512" xmlns="http://www.w3.org/2000/svg"><g><path d="m98.326 285.243-44.372 126.167-16.467 16.467 72.161 72.161 96.784-96.784 70.989-126.867-119.866-24.649c-25.34-5.214-50.645 9.101-59.229 33.505z" fill="#ffcbbe"/><path d="m165.695 375.902 2.905 2.905 74.198-74.198-24.442-24.442-52.662 52.662c-11.893 11.894-11.893 31.179.001 43.073z" fill="#eaac9d"/><ellipse cx="307.128" cy="167.386" fill="#dd636e" rx="162.476" ry="172.154" transform="matrix(.707 -.707 .707 .707 -28.404 266.198)"/><path d="m336.606 333.58c-50.396 6.057-104.265-11.219-144.37-51.313-67.23-67.23-70.289-173.163-6.84-236.612 35.448-35.449 84.145-50.139 131.956-44.473-34.109 4.09-66.642 18.863-92.253 44.473-63.459 63.449-60.389 169.382 6.84 236.612 29.68 29.679 66.891 46.842 104.667 51.313z" fill="#da4a54"/><path d="m334.578 167.386 65.008-65.008c7.58-7.58 7.58-19.87 0-27.451s-19.87-7.58-27.451 0l-65.008 65.008-65.008-65.008c-7.58-7.58-19.87-7.58-27.451 0-7.58 7.58-7.58 19.87 0 27.451l65.008 65.008-65.008 65.008c-7.58 7.58-7.58 19.87 0 27.451 3.79 3.79 8.758 5.685 13.725 5.685 4.968 0 9.935-1.895 13.725-5.685l65.008-65.008 65.008 65.008c3.79 3.79 8.757 5.685 13.725 5.685s9.935-1.895 13.725-5.685c7.58-7.58 7.58-19.87 0-27.451z" fill="#f9f6f9"/><path d="m276.52 258.669-204.12 204.121 49.21 49.21 26.95-26.95 24.5.455c47.723.875 88.051-35.149 92.558-82.653l2.494-26.363 63.114-63.114c7.551-7.551 11.322-17.448 11.331-27.344 0-9.905-3.78-19.81-11.331-27.361-15.103-15.103-39.603-15.103-54.706-.001z" fill="#ffcbbe"/><path d="m250.471 360.983c-5.801 61.276-57.829 107.739-119.368 106.61l-26.95 26.95 17.457 17.457 26.95-26.95 24.5.455c47.723.875 88.051-35.149 92.558-82.653l2.494-26.363 63.114-63.114c7.551-7.551 11.322-17.448 11.331-27.344 0-9.905-3.771-19.801-11.331-27.361-3.054-3.054-6.484-5.486-10.141-7.306 2.677 5.407 4.008 11.305 4.007 17.202 0 9.905-3.771 19.801-11.322 27.353l-63.114 63.114z" fill="#eaac9d"/></g></svg>