<svg width="512" height="512" viewBox="0 0 128 128" xmlns="http://www.w3.org/2000/svg" xmlns:xlink="http://www.w3.org/1999/xlink" overflow="hidden"><g><path d="M104.37 78.18 104.37 56.212 123 25.091C123.497 24.2618 123.227 23.1871 122.398 22.6906 122.126 22.5282 121.816 22.4423 121.5 22.442L61.308 22.442C60.6931 22.4429 60.1237 22.7663 59.808 23.294L25.385 80.794C24.8885 81.6226 25.1577 82.6968 25.9863 83.1933 26.2578 83.356 26.5684 83.442 26.885 83.442L87.077 83.442C87.6918 83.4417 88.2613 83.1186 88.577 82.591L90.2 79.875C90.255 79.888 90.31 79.896 90.366 79.904L90.366 101.62 64 101.62C63.0335 101.62 62.25 102.404 62.25 103.37L62.25 113.87 54.54 113.87 54.54 112.5C54.54 111.534 53.7565 110.75 52.79 110.75L48.538 110.75 48.538 97.5C48.538 96.5335 47.7545 95.75 46.788 95.75L42.57 95.75 42.57 91.5C42.57 90.5335 41.7865 89.75 40.82 89.75L34.82 89.75C33.8535 89.75 33.07 90.5335 33.07 91.5L33.07 95.75 20.7 95.75 20.7 91.5C20.7006 90.5341 19.9179 89.7505 18.952 89.75 18.9513 89.75 18.9507 89.75 18.95 89.75L12.95 89.75C11.9835 89.75 11.2 90.5335 11.2 91.5L11.2 95.75 6.98 95.75C6.0135 95.75 5.23 96.5335 5.23 97.5L5.23 121.5C5.23 122.466 6.0135 123.25 6.98 123.25L46.788 123.25C47.7545 123.25 48.538 122.466 48.538 121.5L48.538 120.25 52.79 120.25C53.7565 120.25 54.54 119.466 54.54 118.5L54.54 117.37 64 117.37C64.9665 117.37 65.75 116.587 65.75 115.62L65.75 105.12 90.37 105.12 90.37 107.75 84.146 107.75C83.1801 107.749 82.3966 108.532 82.396 109.498 82.396 109.499 82.396 109.499 82.396 109.5L82.396 113.75 76.712 113.75C75.7455 113.75 74.962 114.534 74.962 115.5L74.962 121.5C74.962 122.466 75.7455 123.25 76.712 123.25L116.52 123.25C117.486 123.25 118.27 122.466 118.27 121.5L118.27 115.5C118.27 114.534 117.486 113.75 116.52 113.75L110.835 113.75 110.835 109.5C110.836 108.534 110.053 107.751 109.087 107.75 109.086 107.75 109.086 107.75 109.085 107.75L102.87 107.75 102.87 79.9C103.728 79.7788 104.367 79.0463 104.37 78.18ZM36.57 93.25 39.07 93.25 39.07 95.75 36.57 95.75ZM14.7 93.25 17.2 93.25 17.2 95.75 14.7 95.75ZM45.038 119.75 8.73 119.75 8.73 99.25 45.038 99.25ZM51.038 116.75 48.538 116.75 48.538 114.25 51.038 114.25ZM100.868 76.43 92.368 76.43 92.368 76.257 100.868 62.057ZM49.876 79.942 54.665 71.942 70.49 71.942 65.701 79.942ZM56.76 68.442 61.55 60.442 77.375 60.442 72.585 68.442ZM41.646 60.442 57.471 60.442 52.682 68.442 36.856 68.442ZM48.53 48.942 64.356 48.942 59.566 56.942 43.741 56.942ZM55.415 37.442 71.24 37.442 66.451 45.442 50.626 45.442ZM98.029 25.942 93.239 33.942 77.414 33.942 82.204 25.942ZM91.144 37.442 86.355 45.442 70.53 45.442 75.319 37.442ZM106.744 45.442 90.433 45.442 95.223 37.442 111.528 37.442ZM99.859 56.942 83.559 56.942 88.348 48.942 104.653 48.942ZM79.475 56.942 63.645 56.942 68.434 48.942 84.259 48.942ZM81.458 60.442 97.759 60.442 92.969 68.442 76.669 68.442ZM113.628 33.942 97.318 33.942 102.107 25.942 118.413 25.942ZM62.305 25.942 78.125 25.942 73.336 33.942 57.51 33.942ZM34.766 71.942 50.586 71.942 45.797 79.942 29.972 79.942ZM86.089 79.942 69.779 79.942 74.569 71.942 90.869 71.942ZM114.77 119.75 78.462 119.75 78.462 117.25 114.77 117.25ZM107.335 113.75 85.9 113.75 85.9 111.25 107.339 111.25ZM93.87 107.75 93.87 79.93 99.37 79.93 99.37 107.75Z"/><path d="M6.5 24.75 9.374 24.75C9.68334 27.1696 10.6354 29.4621 12.131 31.389L10.09 33.43C9.41933 34.129 9.4423 35.2393 10.1413 35.91 10.8199 36.5611 11.8914 36.5611 12.57 35.91L14.611 33.869C16.5379 35.3646 18.8304 36.3167 21.25 36.626L21.25 39.5C21.25 40.4665 22.0335 41.25 23 41.25 23.9665 41.25 24.75 40.4665 24.75 39.5L24.75 36.626C27.1696 36.3167 29.4621 35.3646 31.389 33.869L33.43 35.91C34.1007 36.609 35.211 36.632 35.91 35.9613 36.609 35.2906 36.632 34.1803 35.9613 33.4813 35.9446 33.4639 35.9275 33.4467 35.91 33.43L33.869 31.389C35.3646 29.4621 36.3167 27.1696 36.626 24.75L39.5 24.75C40.4665 24.75 41.25 23.9665 41.25 23 41.25 22.0335 40.4665 21.25 39.5 21.25L36.626 21.25C36.3167 18.8304 35.3646 16.5379 33.869 14.611L35.91 12.57C36.609 11.8993 36.632 10.789 35.9613 10.09 35.2906 9.391 34.1803 9.36803 33.4813 10.0387 33.4639 10.0554 33.4467 10.0725 33.43 10.09L31.389 12.13C29.4617 10.6351 27.1694 9.68347 24.75 9.374L24.75 6.5C24.75 5.5335 23.9665 4.75 23 4.75 22.0335 4.75 21.25 5.5335 21.25 6.5L21.25 9.374C18.8306 9.68347 16.5383 10.6351 14.611 12.13L12.57 10.09C11.871 9.41933 10.7607 9.4423 10.09 10.1413 9.43887 10.8199 9.43887 11.8914 10.09 12.57L12.131 14.611C10.6354 16.5379 9.68334 18.8304 9.374 21.25L6.5 21.25C5.5335 21.25 4.75 22.0335 4.75 23 4.75 23.9665 5.5335 24.75 6.5 24.75ZM23 12.75C28.6609 12.75 33.25 17.3391 33.25 23 33.25 28.6609 28.6609 33.25 23 33.25 17.3391 33.25 12.75 28.6609 12.75 23 12.7561 17.3416 17.3416 12.7561 23 12.75Z"/><path d="M12.98 106C12.0135 106 11.23 106.784 11.23 107.75L11.23 114C11.23 114.966 12.0135 115.75 12.98 115.75 13.9465 115.75 14.73 114.966 14.73 114L14.73 107.75C14.7306 106.784 13.9479 106.001 12.982 106 12.9813 106 12.9807 106 12.98 106Z"/><path d="M29.008 107.75 27.22 107.75 28.538 103.95C28.849 103.035 28.3593 102.041 27.4442 101.73 26.5368 101.422 25.5502 101.9 25.231 102.804L23.108 108.929C22.791 109.841 23.2737 110.838 24.1861 111.155 24.371 111.219 24.5653 111.252 24.761 111.252L26.549 111.252 25.231 115.052C24.9144 115.965 25.3975 116.961 26.3101 117.278 26.3104 117.278 26.3107 117.278 26.311 117.278 26.4949 117.344 26.6887 117.378 26.884 117.378 27.6297 117.378 28.2935 116.906 28.538 116.201L30.661 110.076C30.978 109.164 30.4953 108.167 29.5829 107.85 29.398 107.786 29.2037 107.753 29.008 107.753Z"/></g></svg>