<svg width="427" height="441" xmlns="http://www.w3.org/2000/svg" xmlns:xlink="http://www.w3.org/1999/xlink" overflow="hidden"><defs><clipPath id="clip0"><path d="M427 140 854 140 854 581 427 581Z" fill-rule="evenodd" clip-rule="evenodd"/></clipPath></defs><g clip-path="url(#clip0)" transform="translate(-427 -140)"><path d="M648.5 522.5C648.5 550.114 626.114 572.5 598.5 572.5 570.886 572.5 548.5 550.114 548.5 522.5 548.5 494.886 570.886 472.5 598.5 472.5 626.114 472.5 648.5 494.886 648.5 522.5Z" stroke="#0D0D0D" stroke-width="14.6667" stroke-miterlimit="8" fill="none" fill-rule="evenodd"/><path d="M745 472.5 745 472.5C717.11 472.5 694.5 494.886 694.5 522.5 694.5 550.114 717.11 572.5 745 572.5 772.89 572.5 795.5 550.114 795.5 522.5 795.5 494.886 772.89 472.5 745 472.5Z" stroke="#0D0D0D" stroke-width="14.6667" stroke-miterlimit="8" fill="none" fill-rule="evenodd"/><path d="M831.126 421.74 569.254 421.74 564.13 392.007 779.367 392.007C785.698 392.026 791.395 388.159 793.716 382.267L844.963 253.081C848.077 245.179 844.196 236.247 836.297 233.134 834.487 232.42 832.558 232.056 830.614 232.062L537.481 232.062 525.182 161.318C523.919 153.837 517.391 148.395 509.808 148.502L450.874 148.502C442.383 148.502 435.5 155.387 435.5 163.881 435.5 172.374 442.383 179.26 450.874 179.26L496.996 179.26 541.069 439.682C542.332 447.163 548.86 452.605 556.443 452.499L831.126 452.499C839.617 452.499 846.5 445.613 846.5 437.119 846.5 428.626 839.617 421.74 831.126 421.74Z" stroke="#0D0D0D" stroke-width="14.6667" stroke-miterlimit="8" fill="none" fill-rule="evenodd"/></g></svg>